<svg width="56" height="56" viewBox="0 0 56 56" fill="none" xmlns="http://www.w3.org/2000/svg">
<g clip-path="url(#clip0_62_30)">
<path d="M14 1.75C14 1.28587 13.8156 0.840752 13.4874 0.512563C13.1592 0.184374 12.7141 0 12.25 0C11.7859 0 11.3408 0.184374 11.0126 0.512563C10.6844 0.840752 10.5 1.28587 10.5 1.75V3.5H7C5.14348 3.5 3.36301 4.2375 2.05025 5.55025C0.737498 6.86301 0 8.64348 0 10.5L0 14H56V10.5C56 8.64348 55.2625 6.86301 53.9497 5.55025C52.637 4.2375 50.8565 3.5 49 3.5H45.5V1.75C45.5 1.28587 45.3156 0.840752 44.9874 0.512563C44.6592 0.184374 44.2141 0 43.75 0C43.2859 0 42.8408 0.184374 42.5126 0.512563C42.1844 0.840752 42 1.28587 42 1.75V3.5H14V1.75ZM56 49V17.5H0V49C0 50.8565 0.737498 52.637 2.05025 53.9497C3.36301 55.2625 5.14348 56 7 56H49C50.8565 56 52.637 55.2625 53.9497 53.9497C55.2625 52.637 56 50.8565 56 49ZM43.75 24.5H47.25C47.7141 24.5 48.1592 24.6844 48.4874 25.0126C48.8156 25.3408 49 25.7859 49 26.25V29.75C49 30.2141 48.8156 30.6593 48.4874 30.9874C48.1592 31.3156 47.7141 31.5 47.25 31.5H43.75C43.2859 31.5 42.8408 31.3156 42.5126 30.9874C42.1844 30.6593 42 30.2141 42 29.75V26.25C42 25.7859 42.1844 25.3408 42.5126 25.0126C42.8408 24.6844 43.2859 24.5 43.75 24.5Z" fill="#C4C4C4"/>
</g>
<defs>
<clipPath id="clip0_62_30">
<rect width="56" height="56" fill="white"/>
</clipPath>
</defs>
</svg>
