<svg width="58" height="58" viewBox="0 0 58 58" fill="none" xmlns="http://www.w3.org/2000/svg">
<circle cx="28.88" cy="28.88" r="28.88" fill="#25275A"/>
<path d="M31.75 23.25H22.75C19.0234 23.25 16 26.2734 16 30V45.75C16 46.9893 17.0107 48 18.25 48H36.25C37.4893 48 38.5 46.9893 38.5 45.75V30C38.5 26.2734 35.4766 23.25 31.75 23.25ZM27.25 41.25C24.1475 41.25 21.625 38.7275 21.625 35.625C21.625 32.5225 24.1475 30 27.25 30C30.3525 30 32.875 32.5225 32.875 35.625C32.875 38.7275 30.3525 41.25 27.25 41.25ZM31.75 14.25C31.75 13.0107 30.7393 12 29.5 12H25C23.7607 12 22.75 13.0107 22.75 14.25V21H31.75V14.25ZM42.844 15.6266C42.9297 15.5838 43 15.4706 43 15.375C43 15.2783 42.9297 15.1662 42.844 15.1234L40.75 14.25L39.8755 12.156C39.8338 12.0703 39.7217 12 39.625 12C39.5283 12 39.4162 12.0703 39.3723 12.156L38.5 14.25L36.406 15.1234C36.3203 15.1662 36.25 15.2783 36.25 15.375C36.25 15.4706 36.3203 15.5838 36.406 15.6266L38.5 16.5L39.3723 18.594C39.4162 18.6797 39.5283 18.75 39.625 18.75C39.7217 18.75 39.8338 18.6797 39.8755 18.594L40.75 16.5L42.844 15.6266ZM47.5 16.5L48.3723 18.594C48.4162 18.6797 48.5283 18.75 48.625 18.75C48.7217 18.75 48.8338 18.6797 48.8755 18.594L49.75 16.5L51.844 15.6266C51.9297 15.5838 52 15.4706 52 15.375C52 15.2783 51.9297 15.1662 51.844 15.1234L49.75 14.25L48.8755 12.156C48.8338 12.0703 48.7217 12 48.625 12C48.5283 12 48.4162 12.0703 48.3723 12.156L47.5 14.25L45.406 15.1234C45.3203 15.1662 45.25 15.2783 45.25 15.375C45.25 15.4706 45.3203 15.5838 45.406 15.6266L47.5 16.5ZM49.75 27.75L48.8755 25.656C48.8338 25.5703 48.7217 25.5 48.625 25.5C48.5283 25.5 48.4162 25.5703 48.3723 25.656L47.5 27.75L45.406 28.6234C45.3203 28.6662 45.25 28.7783 45.25 28.875C45.25 28.9706 45.3203 29.0838 45.406 29.1266L47.5 30L48.3723 32.094C48.4162 32.1797 48.5283 32.25 48.625 32.25C48.7217 32.25 48.8338 32.1797 48.8755 32.094L49.75 30L51.844 29.1266C51.9297 29.0838 52 28.9706 52 28.875C52 28.7783 51.9297 28.6662 51.844 28.6234L49.75 27.75ZM47.344 22.3766C47.4297 22.3338 47.5 22.2206 47.5 22.125C47.5 22.0283 47.4297 21.9162 47.344 21.8734L45.25 21L44.3755 18.906C44.3338 18.8203 44.2217 18.75 44.125 18.75C44.0283 18.75 43.9162 18.8203 43.8723 18.906L43 21L40.906 21.8734C40.8203 21.9162 40.75 22.0283 40.75 22.125C40.75 22.2206 40.8203 22.3338 40.906 22.3766L43 23.25L43.8723 25.344C43.9162 25.4297 44.0283 25.5 44.125 25.5C44.2217 25.5 44.3338 25.4297 44.3755 25.344L45.25 23.25L47.344 22.3766Z" fill="#F5F4F2"/>
</svg>
