<svg width="328" height="146" viewBox="0 0 328 146" fill="none" xmlns="http://www.w3.org/2000/svg">
<path d="M26.4836 107.772L29.2524 103.69L15.2206 94.1713L35.457 94.5443L38.1248 90.6119L16.7344 76.1008L13.9656 80.1822L28.0272 89.7215L7.74078 89.358L5.09322 93.2607L26.4836 107.772Z" fill="#25275A"/>
<path d="M43.3621 84.8929L46.6544 81.2207L27.4088 63.9659L24.1165 67.6381L43.3621 84.8929Z" fill="#25275A"/>
<path d="M63.7203 55.0592C63.423 58.5084 62.6046 60.8907 60.1528 62.9534C56.2411 66.2444 51.0266 65.9739 47.5965 61.8969C44.3287 58.0128 44.9485 52.5984 48.6674 49.4696C50.9814 47.5228 53.7716 46.869 57.1614 47.2633L57.6737 42.504C53.3652 41.8006 48.9921 43.0334 45.714 45.7914C40.0392 50.5657 38.6442 58.7493 43.9052 65.0026C49.0272 71.0905 56.9357 71.8231 63.1338 66.6084C66.8527 63.4796 68.0687 60.3395 68.5303 55.5759L63.7203 55.0592Z" fill="#25275A"/>
<path d="M77.3652 55.3492L89.4944 48.1359L87.0287 43.9897L79.1385 48.682L75.6791 42.8649L83.5692 38.1726L81.1035 34.0264L73.2133 38.7187L70.8579 34.7582L78.7481 30.0659L76.2823 25.9197L64.1532 33.133L77.3652 55.3492Z" fill="#25275A"/>
<path d="M126.602 26.0937C124.937 29.1291 123.226 30.9779 120.15 31.8747C115.243 33.3057 110.582 30.9523 109.09 25.8373C107.669 20.9642 110.423 16.2614 115.089 14.901C117.992 14.0545 120.809 14.5833 123.75 16.3129L126.141 12.166C122.484 9.78244 117.985 9.14413 113.872 10.3433C106.753 12.4192 102.172 19.3423 104.459 27.1876C106.686 34.8256 113.625 38.6897 121.401 36.4223C126.067 35.0619 128.448 32.6804 130.794 28.5089L126.602 26.0937Z" fill="#25275A"/>
<path d="M138.959 31.9132L150.954 30.3546L150.351 25.7136L143.247 26.6367L140.519 5.64518L135.628 6.28069L138.959 31.9132Z" fill="#25275A"/>
<path d="M157.712 30.0401L171.824 30.0005L171.81 25.1765L162.63 25.2023L162.611 18.4343L171.791 18.4085L171.777 13.5845L162.598 13.6103L162.585 9.00235L171.765 8.97656L171.751 4.15258L157.639 4.19222L157.712 30.0401Z" fill="#25275A"/>
<path d="M177.091 30.1648L182.142 30.9514L185.06 26.0137L195.483 27.6369L196.655 33.2116L201.706 33.9983L195.83 6.92362L190.921 6.15914L177.091 30.1648ZM194.375 22.5822L187.617 21.5297L192.359 13.3055L194.375 22.5822Z" fill="#25275A"/>
<path d="M207.366 35.7914L212.025 37.4095L217.588 21.392L222.465 41.0354L226.954 42.5944L235.435 18.1771L230.776 16.559L225.201 32.6105L220.301 12.9213L215.846 11.3741L207.366 35.7914Z" fill="#25275A"/>
<path d="M246.431 53.0365L250.612 55.6521L264.32 33.7383L260.139 31.1228L246.431 53.0365Z" fill="#25275A"/>
<path d="M258.717 60.9486L262.509 64.1025L273.352 51.0666L271.006 71.17L274.659 74.2088L291.188 54.3367L287.397 51.1827L276.531 64.2463L278.872 44.0922L275.246 41.0764L258.717 60.9486Z" fill="#25275A"/>
<path d="M299.2 90.6C295.753 90.2756 293.377 89.4385 291.334 86.9706C288.073 83.0332 288.385 77.821 292.489 74.423C296.398 71.1858 301.808 71.8481 304.907 75.5915C306.836 77.9207 307.468 80.7159 307.047 84.1025L311.802 84.6522C312.539 80.3494 311.341 75.9667 308.609 72.667C303.879 66.9549 295.707 65.4956 289.412 70.7074C283.284 75.7814 282.489 83.6839 287.655 89.9228C290.755 93.6662 293.885 94.9068 298.645 95.4058L299.2 90.6Z" fill="#25275A"/>
<path d="M304.096 103.464C303.304 102.176 301.632 101.724 300.313 102.535C299.025 103.327 298.611 105.06 299.403 106.348C300.214 107.667 301.909 108.019 303.197 107.228C304.486 106.436 304.887 104.752 304.096 103.464Z" fill="#25275A"/>
<path d="M174 80H150C140.062 80 132 88.0625 132 98V140C132 143.305 134.695 146 138 146H186C189.305 146 192 143.305 192 140V98C192 88.0625 183.938 80 174 80ZM162 128C153.727 128 147 121.273 147 113C147 104.727 153.727 98 162 98C170.273 98 177 104.727 177 113C177 121.273 170.273 128 162 128ZM174 56C174 52.6953 171.305 50 168 50H156C152.695 50 150 52.6953 150 56V74H174V56ZM203.584 59.6709C203.812 59.5567 204 59.2548 204 59C204 58.7422 203.812 58.4433 203.584 58.3291L198 56L195.668 50.4161C195.557 50.1875 195.258 50 195 50C194.742 50 194.443 50.1875 194.326 50.4161L192 56L186.416 58.3291C186.188 58.4433 186 58.7422 186 59C186 59.2548 186.188 59.5567 186.416 59.6709L192 62L194.326 67.5839C194.443 67.8125 194.742 68 195 68C195.258 68 195.557 67.8125 195.668 67.5839L198 62L203.584 59.6709ZM216 62L218.326 67.5839C218.443 67.8125 218.742 68 219 68C219.258 68 219.557 67.8125 219.668 67.5839L222 62L227.584 59.6709C227.812 59.5567 228 59.2548 228 59C228 58.7422 227.812 58.4433 227.584 58.3291L222 56L219.668 50.4161C219.557 50.1875 219.258 50 219 50C218.742 50 218.443 50.1875 218.326 50.4161L216 56L210.416 58.3291C210.188 58.4433 210 58.7422 210 59C210 59.2548 210.188 59.5567 210.416 59.6709L216 62ZM222 92L219.668 86.4161C219.557 86.1875 219.258 86 219 86C218.742 86 218.443 86.1875 218.326 86.4161L216 92L210.416 94.3291C210.188 94.4433 210 94.7422 210 95C210 95.2548 210.188 95.5567 210.416 95.6709L216 98L218.326 103.584C218.443 103.812 218.742 104 219 104C219.258 104 219.557 103.812 219.668 103.584L222 98L227.584 95.6709C227.812 95.5567 228 95.2548 228 95C228 94.7422 227.812 94.4433 227.584 94.3291L222 92ZM215.584 77.6709C215.812 77.5567 216 77.2548 216 77C216 76.7422 215.812 76.4433 215.584 76.3291L210 74L207.668 68.4161C207.557 68.1875 207.258 68 207 68C206.742 68 206.443 68.1875 206.326 68.4161L204 74L198.416 76.3291C198.188 76.4433 198 76.7422 198 77C198 77.2548 198.188 77.5567 198.416 77.6709L204 80L206.326 85.5839C206.443 85.8125 206.742 86 207 86C207.258 86 207.557 85.8125 207.668 85.5839L210 80L215.584 77.6709Z" fill="#25275A"/>
</svg>
