<svg width="58" height="58" viewBox="0 0 58 58" fill="none" xmlns="http://www.w3.org/2000/svg">
<circle cx="28.88" cy="28.88" r="28.88" fill="#D7D7D7"/>
<path d="M19.5625 44H23.9375C25.1475 44 26.125 43.0105 26.125 41.7857C26.125 40.5609 25.1475 39.5714 23.9375 39.5714H19.5625C18.3546 39.5714 17.375 38.5798 17.375 37.3571V19.6429C17.375 18.4202 18.3546 17.4286 19.5625 17.4286H23.9375C25.1475 17.4286 26.125 16.437 26.125 15.2143C26.125 13.9916 25.1475 13 23.9375 13H19.5625C15.9381 13 13 15.9741 13 19.6429V37.3571C13 41.0246 15.9381 44 19.5625 44ZM47.5078 27.2891L37.6572 17.8783C37.1804 17.4232 36.4814 17.2988 35.8799 17.5605C35.2781 17.8232 34.888 18.4233 34.888 19.0862L34.8817 24.0684L26.1317 24.0683C24.9224 24.0683 23.9428 25.0599 23.9428 26.2826V30.7112C23.9428 31.9339 24.9231 32.9255 26.1317 32.9255L34.8817 32.9255L34.888 37.8454C34.888 38.5082 35.2781 39.1082 35.8799 39.3712C36.4817 39.6328 37.1808 39.5085 37.6572 39.0533L47.5078 29.6426C48.1641 29.0812 48.1641 27.9187 47.5078 27.2891Z" fill="white"/>
</svg>
